<?xml version="1.0" encoding="UTF-8"?>
<!DOCTYPE svg PUBLIC "-//W3C//DTD SVG 1.1//EN" "http://www.w3.org/Graphics/SVG/1.1/DTD/svg11.dtd">
<svg xmlns="http://www.w3.org/2000/svg" width="980" height="982" style="shape-rendering:geometricPrecision;text-rendering:geometricPrecision;image-rendering:optimizeQuality;fill-rule:evenodd;clip-rule:evenodd">
  <path style="opacity:.986" fill="#0088d0" d="M488.5 1.5q11.04 8.8 24 15.5Q592.483 71.21 636 157.5a278 278 0 0 1 8.5 21 429 429 0 0 0-25-12q-55.797-112.8-171-163 19.734-2.88 40-2"/>
  <path style="opacity:.983" fill="#0082c9" d="M488.5 1.5q18.267-.492 36 1a1310 1310 0 0 0 32 24.5q62.157 53.672 98.5 127.5 7.76 19.517 15.5 39a252 252 0 0 0-26-15 278 278 0 0 0-8.5-21Q592.483 71.21 512.5 17q-12.96-6.7-24-15.5"/>
  <path style="opacity:.988" fill="#007cc2" d="M524.5 2.5a692 692 0 0 1 65 9q7.134 8.38 16 15.5A646 646 0 0 1 660 95.5a447 447 0 0 1 37 73 906 906 0 0 1 17.5 56q-.595 1.538-2 .5a307 307 0 0 0-42-31.5 120187 120187 0 0 0-15.5-39Q618.657 80.672 556.5 27a1310 1310 0 0 1-32-24.5"/>
  <path style="opacity:.987" fill="#008dd7" d="M448.5 3.5q115.203 50.2 171 163a299 299 0 0 1-26-9q-3.943-6.028-6.5-13Q539.077 71.572 462.5 30a624 624 0 0 0-54-22.5 407 407 0 0 1 40-4"/>
  <path style="opacity:.989" fill="#0093dd" d="M408.5 7.5a624 624 0 0 1 54 22.5Q539.077 71.572 587 144.5q2.557 6.972 6.5 13a355 355 0 0 0-36-9q-35.721-53.481-91-85.5a401 401 0 0 0-23-14 499 499 0 0 0-63-22l-29-4.5q-2.295-.21-3-2a801 801 0 0 1 60-13"/>
  <path style="opacity:.99" fill="#0073b8" d="M589.5 11.5a371 371 0 0 1 48 12q8.753 12.03 19.5 23 34.378 45.747 58 98 8.985 24.95 18 50a209 209 0 0 1 2.5 13 132.4 132.4 0 0 1-21 17 906 906 0 0 0-17.5-56 447 447 0 0 0-37-73A646 646 0 0 0 605.5 27q-8.866-7.12-16-15.5"/>
  <path style="opacity:.986" fill="#0098df" d="M348.5 20.5q.705 1.79 3 2l29 4.5a499 499 0 0 1 63 22 401 401 0 0 1 23 14q55.279 32.019 91 85.5a466 466 0 0 0-67-6 2.43 2.43 0 0 0-.5-2q-73.053-71.497-176-73a214 214 0 0 0-36.5 2.5 375 375 0 0 0-49 12 2168 2168 0 0 1-25 10.5q65.973-48.235 145-72"/>
  <path style="opacity:.989" fill="#006db2" d="M637.5 23.5q17.241 5.745 34 12 37.329 49.616 62.5 107a680 680 0 0 1 17.5 52 114.5 114.5 0 0 1-16 13 209 209 0 0 0-2.5-13q-9.015-25.05-18-50-23.622-52.253-58-98-10.747-10.97-19.5-23"/>
  <path style="opacity:.986" fill="#0067ab" d="M671.5 35.5a641 641 0 0 1 53 25 1767 1767 0 0 1 27.5 50 38018 38018 0 0 0 18 44 691 691 0 0 0 5.5 20 347 347 0 0 1-24 20 680 680 0 0 0-17.5-52q-25.171-57.384-62.5-107"/>
  <path style="opacity:.979" fill="#005ea3" d="M724.5 60.5q54.594 30.081 99 74a39 39 0 0 1-5 5.5 2070 2070 0 0 1-43 34.5 691 691 0 0 1-5.5-20 38018 38018 0 0 1-18-44 1767 1767 0 0 0-27.5-50"/>
  <path style="opacity:.993" fill="#009fe2" d="M490.5 142.5a453 453 0 0 0-62 5q-7.413-7.13-17-11.5-79.02-39.82-164-14-52.24 19.24-89.5 60.5-58.15 71.613-47 164 7.908 53.036 40.5 95a448.5 448.5 0 0 0-2 61 30 30 0 0 1-6-3.5Q74.01 432.256 65 335.5q-3.318-44.316 9-87a2315 2315 0 0 0 12.5-36q48.322-69.825 117-120a2168 2168 0 0 0 25-10.5 375 375 0 0 1 49-12 214 214 0 0 1 36.5-2.5q102.947 1.502 176 73 .696.891.5 2"/>
  <path style="opacity:.996" fill="#00a5e5" d="M428.5 147.5a233 233 0 0 0-47 12q-3.114-3.321-8-4.5-85.323-28.31-160 21-69.039 52.82-72 140.5.681 38.72 16.5 74 1.139 2.344 3.5 3a279 279 0 0 0-10 48q-32.592-41.964-40.5-95-11.15-92.387 47-164 37.26-41.26 89.5-60.5 84.98-25.82 164 14 9.587 4.37 17 11.5"/>
  <path style="opacity:.994" fill="#04abe7" d="M381.5 159.5a309 309 0 0 0-37 14q-81.94-15.766-139.5 44-52.284 60.66-32.5 139a236 236 0 0 0-11 37q-2.361-.656-3.5-3-15.819-35.28-16.5-74 2.961-87.68 72-140.5 74.677-49.31 160-21 4.886 1.179 8 4.5"/>
  <path style="opacity:.964" fill="#e67817" d="M712.5 321.5a9091 9091 0 0 1-17.5-21q-6.111-6.869-13.5-12v-1a256 256 0 0 1 18-15.5 23955 23955 0 0 1 148-111.5 477 477 0 0 1 29.5 34q1.124 1.702-.5 3a15859 15859 0 0 0-164 124"/>
  <path style="opacity:.991" fill="#2cb1e9" d="M344.5 173.5a785 785 0 0 1-33 18q-52.386 1.941-88.5 39-35.69 38.79-34.5 92-8.03 17.058-16 34-19.784-78.34 32.5-139 57.56-59.766 139.5-44"/>
  <path style="opacity:.978" fill="#48b7eb" d="M311.5 191.5q-76.473 51.471-123 131-1.19-53.21 34.5-92 36.114-37.059 88.5-39"/>
  <path style="opacity:.964" fill="#0087d0" d="M527.5 215.5q81.858 22.876 119 99a36 36 0 0 1-8 6 96 96 0 0 0-7.5-17q-42.7-67.99-122.5-81.5-96.874-10.526-159 63.5-.498-16.53 1-33 81.99-49.623 177-37"/>
  <path style="opacity:.964" fill="#e77816" d="M749.5 384.5h-1q-7.81-21.13-21-39v-3a14887 14887 0 0 0 165-127q14.859 19.273 24 41a7604 7604 0 0 1-167 128"/>
  <path style="opacity:.957" fill="#0081c8" d="M527.5 215.5q46.17 4.561 87 26 5.811 3.538 10.5 9a90.5 90.5 0 0 0 15 17 484 484 0 0 1 22.5 35 108 108 0 0 1-16 12q-37.142-76.123-119-99"/>
  <path style="opacity:.995" fill="#0091db" d="M638.5 320.5a83.3 83.3 0 0 1-17 13q-31.672-69.393-106-88.5-83.021-14.156-141.5 45.5a224 224 0 0 0-15 20 109.4 109.4 0 0 0-9.5 18v-43q62.126-74.026 159-63.5 79.8 13.51 122.5 81.5a96 96 0 0 1 7.5 17"/>
  <path style="opacity:.987" fill="#0098df" d="M86.5 212.5a2315 2315 0 0 1-12.5 36q-12.318 42.684-9 87 9.01 96.756 78.5 163.5a30 30 0 0 0 6 3.5 327.7 327.7 0 0 0 9 66q-.925.166-1.5 1-56.567-37.068-94-93a779 779 0 0 1-18-33 1113 1113 0 0 1-14-35 696 696 0 0 1-12.5-57q18.3-64.593 54.5-121a121.3 121.3 0 0 1 13.5-18"/>
  <path style="opacity:.952" fill="#0077bd" d="M614.5 241.5q37.366 17.428 67 46v1a8130 8130 0 0 0-19 14 484 484 0 0 0-22.5-35 90.5 90.5 0 0 1-15-17q-4.689-5.462-10.5-9"/>
  <path style="opacity:.992" fill="#0098df" d="M621.5 333.5a110.7 110.7 0 0 1-20 15q-29.675-72.638-108-82.5-82.149-1.702-121.5 69.5-31.377 74.157 18 137 47.676 49.938 116.5 41a84.3 84.3 0 0 1-14.5 12 85 85 0 0 0-.5 13q-69.746 2.186-117.5-48a224 224 0 0 1-15-20 109.4 109.4 0 0 1-9.5-18v-124a109.4 109.4 0 0 1 9.5-18 224 224 0 0 1 15-20q58.479-59.656 141.5-45.5 74.328 19.107 106 88.5"/>
  <path style="opacity:.991" fill="#009fe2" d="M601.5 348.5a308 308 0 0 1-19 15q-11.866-41.603-49-63.5-70.246-31.918-125.5 21.5-44.836 57.012-12 122l12 16q55.254 53.418 125.5 21.5 36.498-21.7 49-62.5a571 571 0 0 0 25-19 80 80 0 0 1-1.5 19 221 221 0 0 1-8.5 25 219 219 0 0 1-13 11.5 1322 1322 0 0 0-69 53 1854 1854 0 0 0-9 5.5q-68.824 8.938-116.5-41-49.377-62.843-18-137 39.351-71.202 121.5-69.5 78.325 9.862 108 82.5"/>
  <path style="opacity:.962" fill="#e77817" d="M768.5 460.5h-1a277.3 277.3 0 0 0-8.5-47q-.575-.834-1.5-1v-2a639829 639829 0 0 1 170-134q12.716 19.44 19 42a4.93 4.93 0 0 1-1 2.5 36575 36575 0 0 0-177 139.5"/>
  <path style="opacity:.993" fill="#00a5e5" d="m582.5 363.5-14 10q-13.563-54.816-68-67.5-25.233-4.614-49 5a9408 9408 0 0 1-20 11q-27.684 23.439-32.5 58.5-2.876 44.84 26.5 73 27.027 24.2 66 23a25.9 25.9 0 0 0 1 10q45.045-34.013 90-68-12.501 40.8-49 62.5-70.246 31.918-125.5-21.5l-12-16q-32.836-64.988 12-122 55.254-53.418 125.5-21.5 37.134 21.897 49 63.5"/>
  <path style="opacity:.996" fill="#04abe7" d="M568.5 373.5a72 72 0 0 1-11 9q-10.941-59.615-73.5-66-45.908 3.455-67 44-20.642 58.82 30.5 94 20.795 10.63 44 9v13q-38.973 1.2-66-23-29.376-28.16-26.5-73 4.816-35.061 32.5-58.5 8.875-4.865 20-11 23.767-9.614 49-5 54.437 12.684 68 67.5"/>
  <path style="opacity:.953" fill="#0066ab" d="M712.5 321.5a383 383 0 0 1 15 21v3a164 164 0 0 0-18 12 302 302 0 0 0-7-30 46.4 46.4 0 0 1 10-6"/>
  <path style="opacity:.997" fill="#33b2e9" d="M557.5 382.5a138 138 0 0 0-13 9q-2.054-46.794-47-59.5-52.419-7.673-71.5 41.5-9.486 47.761 32.5 71.5 15.887 6.315 33 5.5v13q-23.205 1.63-44-9-51.142-35.18-30.5-94 21.092-40.545 67-44 62.559 6.385 73.5 66"/>
  <path style="opacity:.995" fill="#47b7eb" d="M544.5 391.5a35.2 35.2 0 0 1-8 6q3.751-39.158-33-56.5-41.684-12.278-65.5 23.5-20.392 48.232 24.5 74.5 14.128 5.484 29 3.5v8q-17.113.815-33-5.5-41.985-23.739-32.5-71.5 19.081-49.173 71.5-41.5 44.946 12.706 47 59.5"/>
  <path style="opacity:.994" fill="#5bbced" d="M536.5 397.5a142 142 0 0 1-13 10q11.458-38.406-24-56.5-39.429-10.657-55.5 26.5-8.462 42.365 32.5 54.5 7.483.749 15 .5v10q-14.872 1.984-29-3.5-44.892-26.268-24.5-74.5 23.816-35.778 65.5-23.5 36.751 17.342 33 56.5"/>
  <path style="opacity:.949" fill="#0078be" d="M702.5 327.5a302 302 0 0 1 7 30 25 25 0 0 1-4 4.5 1062 1062 0 0 1-32 23.5 350 350 0 0 0-4-32 32310 32310 0 0 0 33-26"/>
  <path style="opacity:.988" fill="#0093dd" d="M18.5 351.5a696 696 0 0 0 12.5 57 1113 1113 0 0 0 14 35 779 779 0 0 0 18 33q37.433 55.932 94 93 .575-.834 1.5-1a718 718 0 0 0 10 36q-120.852-62.884-163-193 4.232-30.673 13-60"/>
  <path style="opacity:1" fill="#73c4f0" d="m523.5 407.5-32 25a113 113 0 0 1-15-.5q-40.962-12.135-32.5-54.5 16.071-37.157 55.5-26.5 35.458 18.094 24 56.5"/>
  <path style="opacity:1" fill="#82c9f1" d="M481.5 362.5q26.906 1.407 31 28-3.577 24.827-28.5 28-31.84-5.161-26-37 6.299-16.576 23.5-19"/>
  <path style="opacity:.953" fill="#008ed7" d="M669.5 353.5a350 350 0 0 1 4 32 1103 1103 0 0 1-44 34 172.3 172.3 0 0 0 3-39 719 719 0 0 1 37-27"/>
  <path style="opacity:1" fill="#96d0f3" d="M482.5 369.5q29.564 5.13 18.5 33-15.021 15.975-31.5 2-13.626-19.258 6-32.5 3.64-1.353 7-2.5"/>
  <path style="opacity:.951" fill="#0098df" d="M632.5 380.5q.719 19.695-3 39a440 440 0 0 1-32 24 221 221 0 0 0 8.5-25 80 80 0 0 0 1.5-19 571 571 0 0 0 25-19"/>
  <path style="opacity:.953" fill="#00589e" d="M748.5 384.5h1a583 583 0 0 1 8 26v2a20071 20071 0 0 0-25 20 736 736 0 0 1 2-15.5 14.4 14.4 0 0 0-1-5l2-1a62.8 62.8 0 0 1-1-15.5q6.942-5.483 14-11"/>
  <path style="opacity:.953" fill="#0065a9" d="M734.5 395.5a62.8 62.8 0 0 0 1 15.5l-2 1a14.4 14.4 0 0 1 1 5 736 736 0 0 0-2 15.5 26085 26085 0 0 0-31 24 224 224 0 0 0 9-43 314 314 0 0 1 24-18"/>
  <path style="opacity:.987" fill="#008dd7" d="M5.5 411.5q42.147 130.116 163 193 4.94 11.898 10 24-.09.814-1 1-121.917-56.125-177-178a328 328 0 0 1 5-40"/>
  <path style="opacity:.954" fill="#0071b7" d="M710.5 413.5a224 224 0 0 1-9 43 332.5 332.5 0 0 1-34 27q12.67-23.505 17-50a376 376 0 0 1 26-20"/>
  <path style="opacity:.993" fill="#0091db" d="M349.5 452.5a109.4 109.4 0 0 0 9.5 18 224 224 0 0 0 15 20q47.754 50.186 117.5 48v22q-87.01 1.481-142-65z"/>
  <path style="opacity:.989" fill="#0088d0" d="M.5 451.5q55.083 121.875 177 178 .91-.186 1-1l13 26q-125.206-47.103-192-163v-35q1.426-2.128 1-5"/>
  <path style="opacity:.994" fill="#01438c" d="M767.5 460.5h1q.286 12.51 1 25-58.098 154.457-217.5 198-105.822 22.005-202.5-25v-13q134.345 67.697 269 .5 99.467-54.414 138-160a261 261 0 0 0 6-21.5 803 803 0 0 0 5-4"/>
  <path style="opacity:.993" fill="#004b92" d="M762.5 464.5a261 261 0 0 1-6 21.5q-38.533 105.586-138 160-134.655 67.197-269-.5v-13q51.702 28.644 111 33.5a746 746 0 0 0 31 1.5 25.9 25.9 0 0 0 1 10 87.3 87.3 0 0 1 14-11q97.869-8.208 168-75.5 6.566-2.835 9.5-9.5l14-14a172 172 0 0 1 15-20 71819 71819 0 0 0 21-36 2217 2217 0 0 0 13.5-35 194 194 0 0 1 15-12"/>
  <path style="opacity:.96" fill="#004a92" d="M867.5 472.5a71 71 0 0 1-1.5 9 704 704 0 0 1-45 109 2597 2597 0 0 1-8.5 13q21.288-63.29 19-131z"/>
  <path style="opacity:.989" fill="#01428c" d="M867.5 472.5h24q-69.41 242.1-287 367.5-173.355 94.317-370 70.5a115 115 0 0 1-24-16q95.297 14.512 191 2.5 143.26-22.917 260-107.5a751 751 0 0 0 29-24q84.338-63.35 122-162 4.214-6.403 8.5-13a704 704 0 0 0 45-109 71 71 0 0 0 1.5-9"/>
  <path style="opacity:.997" fill="#0d3d87" d="M891.5 472.5h18q-63.529 232.724-265 364.5-171.178 106.303-373 94.5-19.73-8.607-37-21 196.645 23.817 370-70.5 217.59-125.4 287-367.5"/>
  <path style="opacity:.996" fill="#173884" d="M909.5 472.5h8a214 214 0 0 1-4.5 20q-74.51 238.79-288.5 366-104.173 58.536-223 76.5a1137 1137 0 0 1-110 6.5 140 140 0 0 1-20-10q201.822 11.803 373-94.5 201.472-131.776 265-364.5"/>
  <path style="opacity:.996" fill="#1b3481" d="M917.5 472.5h18q-51.918 202.884-211 337.5-169.492 137.778-389 148.5a877 877 0 0 1-44-17 1137 1137 0 0 0 110-6.5q118.827-17.964 223-76.5 213.99-127.21 288.5-366a214 214 0 0 0 4.5-20"/>
  <path style="opacity:.996" fill="#202e7d" d="M935.5 472.5h19q-60.521 239.424-260 383.5-137.379 95.401-304 116.5a664 664 0 0 1-55-14q219.508-10.722 389-148.5 159.082-134.616 211-337.5"/>
  <path style="opacity:.995" fill="#242778" d="M954.5 472.5h11q-34.798 149.586-131.5 267Q694.4 910.359 479.5 967a516 516 0 0 1-49 10q-1.374.417-2 1.5a375 375 0 0 1-38-6q166.621-21.099 304-116.5 199.479-144.076 260-383.5"/>
  <path style="opacity:.994" fill="#252275" d="M965.5 472.5h12q-48.39 200.128-196 341.5-134.277 123.95-313 167.5h-15a1477 1477 0 0 0-25-3q.626-1.083 2-1.5a516 516 0 0 0 49-10Q694.4 910.359 834 739.5q96.702-117.414 131.5-267"/>
  <path style="opacity:.988" fill="#271c72" d="M977.5 472.5h2v54q-2.11.71-2 3-93.007 275.755-351 410.5a1625 1625 0 0 1-97 40.5q-2.872-.426-5 1h-56q178.723-43.55 313-167.5 147.61-141.372 196-341.5"/>
  <path style="opacity:.967" fill="#008cd5" d="M648.5 461.5q-35.604 80.378-121 103.5a154 154 0 0 0-17 3.5q-.91-.186-1-1a16108 16108 0 0 1 139-106"/>
  <path style="opacity:.992" fill="#005399" d="M747.5 476.5a2217 2217 0 0 1-13.5 35 71819 71819 0 0 1-21 36 172 172 0 0 0-15 20l-14 14q-2.934 6.665-9.5 9.5-70.131 67.292-168 75.5a154.7 154.7 0 0 1 23-18 87 87 0 0 0 9-2 4.93 4.93 0 0 1 2.5 1q48.432-12.594 90.5-39.5 37.554-26.55 65.5-63.5a261 261 0 0 0 27.5-50q11.463-8.953 23-18"/>
  <path style="opacity:.987" fill="#005a9f" d="M724.5 494.5a261 261 0 0 1-27.5 50q-27.946 36.95-65.5 63.5-42.068 26.906-90.5 39.5a4.93 4.93 0 0 0-2.5-1 87 87 0 0 1-9 2 234 234 0 0 1 20-16q38.037-9.523 71-30.5 44.922-30.61 75.5-75.5 3.38-8.585 8.5-16a234 234 0 0 1 20-16"/>
  <path style="opacity:.993" fill="#0d3d87" d="M769.5 485.5a366 366 0 0 1-1 27q-70.791 149.737-234 182.5-96.602 14.614-185-26.5v-10q96.678 47.005 202.5 25 159.402-43.543 217.5-198"/>
  <path style="opacity:.989" fill="#0082c9" d="M-.5 491.5q66.794 115.897 192 163a7774 7774 0 0 0 15 24Q76.691 638.689.5 527.5q0-1-1-1z"/>
  <path style="opacity:.995" fill="#0084cc" d="M349.5 495.5q54.99 66.481 142 65v19q-83.559 1.346-142-57z"/>
  <path style="opacity:.982" fill="#007dc4" d="M684.5 433.5q-4.33 26.495-17 50a322617 322617 0 0 1-136 107q-101.35 21.648-182-45v-23q58.441 58.346 142 57-.098.658.5 1a171 171 0 0 0 17.5-13q.09.814 1 1a154 154 0 0 1 17-3.5q85.396-23.122 121-103.5a741 741 0 0 1 36-28"/>
  <path style="opacity:.994" fill="#1a3582" d="M768.5 512.5a474 474 0 0 1-6 39q-89.305 143.882-259 159.5-80.772 4.3-154-29.5v-13q88.398 41.114 185 26.5 163.209-32.763 234-182.5"/>
  <path style="opacity:.988" fill="#007dc4" d="M.5 527.5q76.191 111.189 206 151a433 433 0 0 1 17 23q-65.406-14.63-122-50.5-54.88-36.13-97-86.5-3.663-18.11-4-37"/>
  <path style="opacity:.897" fill="#0063a8" d="M704.5 510.5q-5.12 7.415-8.5 16-30.578 44.89-75.5 75.5-32.963 20.977-71 30.5a21246 21246 0 0 1 155-122"/>
  <path style="opacity:.987" fill="#27176f" d="M977.5 529.5a488 488 0 0 1-3 34q-118 295-413 413-15.648 3.17-32 4a1625 1625 0 0 0 97-40.5q257.993-134.746 351-410.5"/>
  <path style="opacity:.989" fill="#0071b7" d="M349.5 545.5q80.65 66.648 182 45-16.963 13.455-34 27-82.157 3.896-148-44z"/>
  <path style="opacity:.991" fill="#202e7d" d="M762.5 551.5a235 235 0 0 1-10 33Q644.058 724.704 465.5 720q-60.43-3.933-116-27.5v-11q73.228 33.8 154 29.5 169.695-15.618 259-159.5"/>
  <path style="opacity:.986" fill="#261d72" d="M974.5 563.5a399 399 0 0 1-4 21q-117.012 272.013-389 389a104 104 0 0 1-20 3q295-118 413-413"/>
  <path style="opacity:.99" fill="#0079bf" d="M4.5 564.5q42.12 50.37 97 86.5 56.594 35.87 122 50.5a96.5 96.5 0 0 1 15 18q-136.024-25.739-229-127-4.005-13.546-5-28"/>
  <path style="opacity:.993" fill="#0067ab" d="M349.5 573.5q65.843 47.896 148 44-2.121 2.332-5 4a31.1 31.1 0 0 0-1 11q-77.787 1.892-142-41z"/>
  <path style="opacity:.994" fill="#232778" d="m752.5 584.5-8 19Q632.177 733.337 458.5 725q-57.07-4.157-109-27.5v-5q55.57 23.567 116 27.5 178.558 4.704 287-135.5"/>
  <path style="opacity:.988" fill="#252275" d="M970.5 584.5a406 406 0 0 1-12 51q-77.698 154.459-216 258.5a816 816 0 0 1-108 66.5 439 439 0 0 1-53 13q271.988-116.987 389-389"/>
  <path style="opacity:.991" fill="#0073b8" d="M9.5 592.5q92.976 101.261 229 127a674 674 0 0 0 32 30q-1.683.984-4 1-140.566-16.566-245-110-7.842-23.37-12-48"/>
  <path style="opacity:.995" fill="#005ca1" d="M349.5 591.5q64.213 42.892 142 41v20q-51.988.585-100-16.5a305 305 0 0 1-42-20.5z"/>
  <path style="opacity:.995" fill="#005399" d="M349.5 615.5a305 305 0 0 0 42 20.5q48.012 17.085 100 16.5v15a746 746 0 0 1-31-1.5q-59.298-4.856-111-33.5z"/>
  <path style="opacity:.991" fill="#271c72" d="M732.5 625.5q-18.342 34.359-47 61-77.142 51.988-171 60.5a347.6 347.6 0 0 1-85-3l-40-8a2812 2812 0 0 1-40-13.5v-18q159.986 63.452 310-20.5 39.838-24.94 73-58.5"/>
  <path style="opacity:.99" fill="#006db2" d="M21.5 640.5q104.434 93.434 245 110 2.317-.016 4-1a435 435 0 0 0 28 22q-147.781-7.743-265-96a541 541 0 0 1-12-35"/>
  <path style="opacity:.977" fill="#222b7a" d="M958.5 635.5a393 393 0 0 1-17 47q-97.028 163.527-260 261a393 393 0 0 1-47 17 816 816 0 0 0 108-66.5q138.302-104.041 216-258.5"/>
  <path style="opacity:1" fill="#252376" d="M744.5 603.5q-4.482 11.973-12 22-33.162 33.56-73 58.5-150.014 83.952-310 20.5v-7q51.93 23.343 109 27.5 173.677 8.337 286-121.5"/>
  <path style="opacity:.989" fill="#0067ab" d="M33.5 675.5q117.219 88.257 265 96a423 423 0 0 0 48 27q-154.916 10.895-287-70a390.6 390.6 0 0 1-26-53"/>
  <path style="opacity:.946" fill="#1e307e" d="M941.5 682.5q-27.002 64.54-71.5 118-62.997 75.032-147.5 123.5a575 575 0 0 1-41 19.5q162.972-97.473 260-261"/>
  <path style="opacity:.99" fill="#0060a5" d="M59.5 728.5q132.084 80.895 287 70a389 389 0 0 0 35 15q-67.73 9.742-136 .5a1790 1790 0 0 0-37-6q-68.121-14.45-129-47.5a197 197 0 0 1-20-32"/>
  <path style="opacity:1" fill="#242577" d="M685.5 686.5a163.3 163.3 0 0 1-23 20q-143.765 76.606-299 26l-13-6.5q-1.255-1.517-1-3.5a2812 2812 0 0 0 40 13.5l40 8a347.6 347.6 0 0 0 85 3q93.858-8.512 171-60.5"/>
  <path style="opacity:1" fill="#202e7d" d="M662.5 706.5a618 618 0 0 1-28 20.5 29.3 29.3 0 0 1-7 2.5 3257 3257 0 0 1-43 14.5q-92.38 24.315-185 4.5-19.194-5.602-36-16 155.235 50.606 299-26"/>
  <path style="opacity:.908" fill="#183783" d="M627.5 729.5q-24.17 15.327-52 23.5-77.068 23.186-155 3a163 163 0 0 1-21-7.5q92.62 19.815 185-4.5a3257 3257 0 0 0 43-14.5"/>
  <path style="opacity:.989" fill="#005a9f" d="M79.5 760.5q60.879 33.05 129 47.5 18.523 2.805 37 6 68.27 9.242 136-.5a793 793 0 0 0 54 13q-167.888 38.854-327-27a276 276 0 0 1-29-39"/>
  <path style="opacity:.984" fill="#00468f" d="M690.5 765.5a751 751 0 0 1-29 24q-116.74 84.583-260 107.5-95.703 12.012-191-2.5a229.5 229.5 0 0 1-35-27q67.736 18.342 138 17a616.4 616.4 0 0 0 112-10.5 3065 3065 0 0 1 53-13q26.54-9.513 53-19a1472 1472 0 0 0 46-22.5q61.806-16.155 113-54"/>
  <path style="opacity:.99" fill="#005399" d="M108.5 799.5q159.112 65.854 327 27a467.6 467.6 0 0 0 84 3 391 391 0 0 1-39 15.5q-142.436 42.786-288 12a504 504 0 0 1-41-11.5 351 351 0 0 1-43-46"/>
  <path style="opacity:.988" fill="#004c93" d="M577.5 819.5a1472 1472 0 0 1-46 22.5l-53 19a3065 3065 0 0 0-53 13 616.4 616.4 0 0 1-112 10.5q-70.264 1.342-138-17a285 285 0 0 1-24-22 504 504 0 0 0 41 11.5q145.564 30.786 288-12a391 391 0 0 0 39-15.5 528 528 0 0 0 58-10"/>
</svg>
